<svg width="652" height="125" viewBox="0 0 652 125" fill="none" xmlns="http://www.w3.org/2000/svg">
<path d="M313.543 60.1446C306.23 66.111 296.029 70.2489 283.808 70.2489C262.829 70.2489 245.989 56.1991 245.989 35.3169V35.1245C245.989 15.0121 261.867 0 283.134 0C294.682 0 304.016 3.84926 311.33 10.2005L298.724 25.4051C294.297 21.6521 289.389 19.535 283.808 19.535C275.051 19.535 268.7 26.2712 268.7 35.4132V35.6056C268.7 45.1325 275.34 51.6763 284.77 51.6763C288.619 51.6763 290.737 51.0989 292.469 50.1366V43.4004H280.921V28.9657H313.543V60.1446ZM70.5508 68.8055H94.6087L98.073 59.7597H121.65L125.21 68.8055H149.653L121.265 0.962315H98.9391L70.5508 68.8055ZM103.751 43.7853L109.909 27.426L116.068 43.7853H103.751ZM0.371826 68.8055H22.6975V37.7227L47.7177 68.8055H67.7338V1.44347H45.4081V31.179L21.4465 1.44347H0.371826V68.8055ZM186.817 69.2866H165.261L137.932 1.44347H163.144L176.232 39.2624L189.319 1.44347H214.147L186.817 69.2866ZM217.085 68.8055H239.603V1.44347H217.085V68.8055ZM315.17 68.8055H339.228L342.693 59.7597H366.269L369.83 68.8055H394.273L365.884 0.962315H343.559L315.17 68.8055ZM348.37 43.7853L354.529 27.426L360.688 43.7853H348.37ZM428.142 68.8055H405.624V20.4973H385.8V1.44347H447.966V20.4973H428.142V68.8055ZM453.247 68.8055H475.765V1.44347H453.247V68.8055ZM506.016 68.8055H483.69V1.44347H504.765L528.727 31.179V1.44347H551.052V68.8055H531.036L506.016 37.7227V68.8055ZM595.056 70.2489C607.278 70.2489 617.478 66.111 624.792 60.1446V28.9657H592.169V43.4004H603.717V50.1366C601.985 51.0989 599.868 51.6763 596.019 51.6763C586.588 51.6763 579.948 45.1325 579.948 35.6056V35.4132C579.948 26.2712 586.299 19.535 595.056 19.535C600.638 19.535 605.546 21.6521 609.972 25.4051L622.578 10.2005C615.265 3.84926 605.93 0 594.383 0C573.116 0 557.237 15.0121 557.237 35.1245V35.3169C557.237 56.1991 574.078 70.2489 595.056 70.2489Z" fill="white"/>
<path d="M313.543 60.1446C306.23 66.111 296.029 70.2489 283.808 70.2489C262.829 70.2489 245.989 56.1991 245.989 35.3169V35.1245C245.989 15.0121 261.867 0 283.134 0C294.682 0 304.016 3.84926 311.33 10.2005L298.724 25.4051C294.297 21.6521 289.389 19.535 283.808 19.535C275.051 19.535 268.7 26.2712 268.7 35.4132V35.6056C268.7 45.1325 275.34 51.6763 284.77 51.6763C288.619 51.6763 290.737 51.0989 292.469 50.1366V43.4004H280.921V28.9657H313.543V60.1446ZM70.5508 68.8055H94.6087L98.073 59.7597H121.65L125.21 68.8055H149.653L121.265 0.962315H98.9391L70.5508 68.8055ZM103.751 43.7853L109.909 27.426L116.068 43.7853H103.751ZM0.371826 68.8055H22.6975V37.7227L47.7177 68.8055H67.7338V1.44347H45.4081V31.179L21.4465 1.44347H0.371826V68.8055ZM186.817 69.2866H165.261L137.932 1.44347H163.144L176.232 39.2624L189.319 1.44347H214.147L186.817 69.2866ZM217.085 68.8055H239.603V1.44347H217.085V68.8055ZM315.17 68.8055H339.228L342.693 59.7597H366.269L369.83 68.8055H394.273L365.884 0.962315H343.559L315.17 68.8055ZM348.37 43.7853L354.529 27.426L360.688 43.7853H348.37ZM428.142 68.8055H405.624V20.4973H385.8V1.44347H447.966V20.4973H428.142V68.8055ZM453.247 68.8055H475.765V1.44347H453.247V68.8055ZM506.016 68.8055H483.69V1.44347H504.765L528.727 31.179V1.44347H551.052V68.8055H531.036L506.016 37.7227V68.8055ZM595.056 70.2489C607.278 70.2489 617.478 66.111 624.792 60.1446V28.9657H592.169V43.4004H603.717V50.1366C601.985 51.0989 599.868 51.6763 596.019 51.6763C586.588 51.6763 579.948 45.1325 579.948 35.6056V35.4132C579.948 26.2712 586.299 19.535 595.056 19.535C600.638 19.535 605.546 21.6521 609.972 25.4051L622.578 10.2005C615.265 3.84926 605.93 0 594.383 0C573.116 0 557.237 15.0121 557.237 35.1245V35.3169C557.237 56.1991 574.078 70.2489 595.056 70.2489Z" stroke="black"/>
<path d="M240.136 93.2666C239.516 94.119 238.586 95.3975 237.346 97.1022C236.184 98.8069 234.983 100.589 233.743 102.449C232.503 104.231 231.38 105.858 230.372 107.33C229.365 108.803 228.745 109.733 228.513 110.12C228.513 110.12 229.016 109.81 230.024 109.19C231.031 108.57 232.271 107.795 233.743 106.866C235.215 105.858 236.842 104.773 238.625 103.611C240.407 102.449 242.073 101.364 243.623 100.357C245.25 99.2718 246.683 98.342 247.923 97.5671C249.163 96.7148 249.976 96.1724 250.364 95.9399C250.131 96.3273 249.357 97.1022 248.039 98.2645C246.8 99.3493 245.25 100.705 243.39 102.333C241.608 103.882 239.671 105.548 237.579 107.33C235.486 109.035 233.472 110.662 231.535 112.212C229.675 113.684 228.048 114.963 226.653 116.048C225.336 117.133 224.522 117.791 224.212 118.024L223.166 119.07C223.011 119.225 222.701 119.418 222.236 119.651C221.849 119.806 221.345 119.961 220.725 120.116C220.183 120.193 219.64 120.271 219.098 120.348C218.556 120.426 218.129 120.387 217.82 120.232C217.432 120.077 217.083 119.845 216.773 119.535C216.541 119.225 216.27 118.876 215.96 118.489C214.72 117.016 214.681 115.428 215.844 113.723L239.09 78.8541C237.23 78.8541 235.719 78.8541 234.557 78.8541C233.394 78.8541 232.348 78.8154 231.418 78.7379C230.566 78.6604 229.714 78.5829 228.861 78.5054C228.086 78.4279 227.195 78.3892 226.188 78.3892C225.801 78.3892 225.452 78.2729 225.142 78.0405C224.832 77.808 224.522 77.6143 224.212 77.4593C223.747 77.1494 223.244 76.8394 222.701 76.5295C222.236 76.2196 221.888 75.8709 221.655 75.4834C220.958 74.3986 220.57 73.3525 220.493 72.3452C220.493 72.1128 220.648 71.8803 220.958 71.6478C221.345 71.3379 221.694 71.1829 222.004 71.1829C222.624 71.1054 223.902 71.0279 225.839 70.9505C227.854 70.873 230.024 70.7955 232.348 70.718C234.75 70.6405 237.075 70.6018 239.322 70.6018C241.647 70.5243 243.39 70.5243 244.552 70.6018C246.257 68.0447 247.923 65.6039 249.55 63.2793C251.255 60.8772 252.727 58.7851 253.967 57.0029C255.284 55.1432 256.33 53.6709 257.105 52.5861C257.958 51.4238 258.384 50.8427 258.384 50.8427C258.616 50.6877 258.887 50.494 259.197 50.2615C259.507 50.0291 259.74 49.9516 259.895 50.0291C261.677 50.494 263.188 51.1139 264.428 51.8887C265.513 52.4311 266.055 53.1673 266.055 54.0971C266.055 54.9495 265.59 55.8406 264.66 56.7704C264.428 57.0803 263.963 57.7002 263.265 58.6301C262.646 59.5599 261.948 60.5672 261.173 61.6521C260.476 62.7369 259.779 63.7829 259.081 64.7903C258.384 65.7201 257.919 66.4175 257.686 66.8824C257.531 67.1924 257.338 67.5023 257.105 67.8122C256.95 68.1222 256.718 68.4709 256.408 68.8583C256.175 69.2457 255.904 69.6719 255.594 70.1369L263.265 69.7882L265.706 69.5557C265.939 69.5557 266.171 69.5557 266.404 69.5557C266.714 69.5557 266.946 69.6332 267.101 69.7882C267.953 70.4081 268.806 70.9892 269.658 71.5316C270.588 72.074 271.44 72.6939 272.215 73.3913C272.37 73.6237 272.525 74.0112 272.68 74.5536C272.835 75.096 272.835 75.5609 272.68 75.9483C272.525 76.3358 272.293 76.7232 271.983 77.1106C271.673 77.4981 271.324 77.7305 270.937 77.808C270.084 77.8855 269.309 77.963 268.612 78.0405C267.992 78.0405 266.985 78.0792 265.59 78.1567C264.273 78.1567 262.413 78.1955 260.011 78.2729C257.609 78.2729 254.316 78.3504 250.131 78.5054C248.117 81.5274 246.141 84.4719 244.204 87.3389C242.344 90.1284 240.988 92.1043 240.136 93.2666Z" fill="url(#paint0_linear_405_28)"/>
<path d="M288.777 58.7463C288.157 59.7536 287.189 61.2646 285.871 63.2793C284.631 65.2164 283.237 67.4248 281.687 69.9044C280.137 72.3065 278.471 74.8248 276.689 77.4593C274.984 80.0164 273.396 82.4572 271.924 84.7818C270.451 87.0289 269.173 88.9661 268.088 90.5933C267.003 92.2206 266.306 93.2666 265.996 93.7315C267.158 93.3441 268.553 92.6855 270.18 91.7556C271.807 90.7483 273.163 90.0509 274.248 89.6635C275.488 89.1986 276.689 89.1986 277.851 89.6635C279.091 90.0509 280.099 90.8645 280.873 92.1043C281.416 92.9567 281.842 93.8478 282.152 94.7776C282.539 95.63 282.694 96.5598 282.617 97.5671C282.617 97.8771 282.539 98.187 282.384 98.497C282.229 98.9619 281.842 99.8142 281.222 101.054C280.602 102.216 279.866 103.572 279.014 105.122C278.239 106.594 277.386 108.183 276.457 109.888C275.604 111.515 274.791 113.064 274.016 114.537C273.318 115.931 272.737 117.094 272.272 118.024C271.807 118.953 271.575 119.418 271.575 119.418C272.117 119.186 273.435 118.527 275.527 117.442C277.619 116.358 279.827 115.157 282.152 113.839C284.864 112.445 287.886 110.817 291.218 108.958C287.963 111.592 285.058 113.956 282.501 116.048C281.416 116.978 280.292 117.869 279.13 118.721C278.045 119.573 277.038 120.348 276.108 121.046C275.256 121.743 274.519 122.285 273.9 122.673C273.28 123.138 272.892 123.409 272.737 123.486C269.715 124.726 266.81 124.223 264.02 121.975C262.858 121.046 262.122 120.232 261.812 119.535C261.579 118.76 261.657 117.675 262.044 116.28C262.432 114.575 263.09 113.103 264.02 111.863C264.95 110.624 265.918 109.345 266.926 108.028C268.011 106.556 269.018 105.122 269.948 103.727C270.955 102.255 272.001 100.744 273.086 99.1944C273.008 99.1169 272.931 99.0781 272.854 99.0781C272.776 99.0006 272.699 98.8844 272.621 98.7294C269.599 99.1169 266.887 100.163 264.485 101.868C262.083 103.495 259.952 105.316 258.092 107.33C256.31 109.268 254.838 111.205 253.676 113.142C252.513 115.002 251.622 116.358 251.002 117.21C250.925 117.365 250.731 117.597 250.421 117.907C250.189 118.217 249.724 118.527 249.026 118.837C248.406 119.147 247.515 119.341 246.353 119.418C245.191 119.496 243.719 119.341 241.936 118.953C241.781 118.953 241.394 118.682 240.774 118.14C240.154 117.597 239.805 117.249 239.728 117.094C239.883 116.474 239.999 116.086 240.077 115.931C240.154 115.776 240.193 115.622 240.193 115.467C247.477 104.231 254.102 94.0802 260.068 85.0143C262.625 81.14 265.105 77.3044 267.507 73.5075C269.987 69.7107 272.234 66.3013 274.248 63.2793C276.34 60.1798 278.045 57.584 279.362 55.4919C280.757 53.3997 281.648 52.1212 282.036 51.6563C283.818 49.4092 285.6 49.7191 287.382 52.5861C288.002 53.4385 288.467 54.2908 288.777 55.1432C289.397 56.5379 289.397 57.739 288.777 58.7463Z" fill="url(#paint1_linear_405_28)"/>
<path d="M289.978 113.374C290.443 113.762 291.528 113.917 293.233 113.839C294.938 113.684 296.913 113.413 299.161 113.026C301.485 112.561 303.926 112.057 306.483 111.515C309.118 110.895 311.597 110.352 313.922 109.888C316.246 109.345 318.261 108.919 319.966 108.609C321.748 108.299 322.949 108.183 323.569 108.26L323.453 108.377C323.143 108.531 322.29 108.88 320.896 109.423C319.501 109.965 317.835 110.624 315.898 111.398C314.038 112.096 311.985 112.871 309.737 113.723C307.568 114.498 305.514 115.234 303.577 115.931C301.64 116.629 299.974 117.249 298.579 117.791C297.185 118.334 296.332 118.644 296.022 118.721C294.86 119.186 293.659 119.457 292.419 119.535C291.179 119.535 289.901 119.418 288.584 119.186C285.484 118.489 283.082 116.939 281.377 114.537C281.222 114.227 281.067 113.878 280.912 113.491C280.757 113.103 280.602 112.716 280.448 112.328C280.293 110.546 280.951 108.57 282.423 106.401C283.896 104.231 285.639 102.178 287.654 100.24C289.668 98.2258 291.683 96.4048 293.698 94.7776C295.79 93.1504 297.301 91.9493 298.231 91.1745C298.773 90.7096 299.625 90.2059 300.788 89.6635C301.95 89.0436 303.229 88.5012 304.623 88.0363C306.096 87.5714 307.645 87.2227 309.273 86.9902C310.977 86.6803 312.604 86.6028 314.154 86.7577C315.317 86.9127 316.014 87.4551 316.246 88.385C316.556 89.2373 316.944 90.0897 317.409 90.942C317.719 91.4069 318.493 91.7169 319.733 91.8719C320.353 92.2593 320.896 92.7242 321.36 93.2666C321.825 93.809 322.058 94.5452 322.058 95.475C321.748 95.5525 321.515 95.8624 321.36 96.4048C320.896 97.1022 320.508 97.6834 320.198 98.1483C319.966 98.6132 319.733 99.0394 319.501 99.4268C319.268 99.7368 318.958 100.085 318.571 100.473C318.261 100.86 317.835 101.364 317.292 101.984C316.363 102.836 314.774 103.417 312.527 103.727C310.357 103.96 308.149 104.115 305.902 104.192C303.267 104.27 300.362 104.231 297.185 104.076H297.068C296.371 104.773 295.596 105.587 294.744 106.517C293.969 107.369 293.233 108.26 292.535 109.19C291.916 110.042 291.334 110.856 290.792 111.631C290.327 112.406 290.056 112.987 289.978 113.374ZM304.275 102.216C308.614 98.5745 310.9 95.8624 311.132 94.0802C309.428 94.7001 307.413 95.8237 305.088 97.4509C302.841 99.0006 300.71 100.705 298.696 102.565C299.393 102.72 300.207 102.759 301.136 102.681C302.144 102.526 303.19 102.371 304.275 102.216Z" fill="url(#paint2_linear_405_28)"/>
<path d="M386.814 120C386.117 120.464 385.342 120.929 384.49 121.394C383.715 121.859 382.901 122.208 382.049 122.44C381.197 123.138 380.305 123.176 379.376 122.557C378.601 121.937 377.787 121.433 376.935 121.046C376.16 120.658 375.385 120.155 374.61 119.535C373.525 118.682 373.37 117.481 374.145 115.931C374.455 115.312 374.726 114.73 374.959 114.188C375.191 113.568 375.424 112.948 375.656 112.328L375.308 111.98L372.867 113.607C371.394 114.537 369.922 115.467 368.45 116.396C367.055 117.249 365.699 118.217 364.382 119.302C363.607 119.922 362.871 120.271 362.174 120.348C361.554 120.426 360.934 120.387 360.314 120.232C359.771 120 359.19 119.69 358.57 119.302C358.028 118.915 357.447 118.566 356.827 118.256C356.362 118.024 355.82 117.636 355.2 117.094C354.657 116.551 354.192 115.893 353.805 115.118C353.418 114.266 353.185 113.336 353.108 112.328C353.03 111.321 353.224 110.236 353.689 109.074C354.154 108.067 354.967 106.594 356.13 104.657C357.369 102.643 358.648 100.589 359.965 98.497C361.36 96.4048 362.677 94.4289 363.917 92.5692C365.234 90.7096 366.203 89.3923 366.823 88.6174C367.055 88.385 367.404 88.1912 367.869 88.0363C368.334 87.8038 368.76 87.7263 369.147 87.8038C369.845 87.9588 370.542 88.1912 371.239 88.5012C371.937 88.7336 372.634 88.9661 373.332 89.1986C374.649 89.586 375.424 90.3221 375.656 91.4069C375.889 92.4143 375.579 93.4603 374.726 94.5452C373.409 96.2499 372.131 97.9933 370.891 99.7755C369.728 101.558 368.527 103.34 367.288 105.122C367.133 105.277 366.861 105.626 366.474 106.168C366.087 106.711 365.699 107.292 365.312 107.912C364.924 108.531 364.537 109.151 364.149 109.771C363.839 110.314 363.646 110.701 363.568 110.934C366.668 110.546 369.419 109.5 371.821 107.795C374.223 106.091 376.276 104.27 377.981 102.333C379.763 100.395 381.158 98.6132 382.165 96.986C383.25 95.2813 383.947 94.2352 384.257 93.8478C384.8 93.2279 385.613 92.8404 386.698 92.6855C387.86 92.5305 389.023 92.5692 390.185 92.8017C391.347 92.9567 392.393 93.2279 393.323 93.6153C394.253 93.9253 394.834 94.2739 395.067 94.6614C395.222 95.0488 395.299 95.475 395.299 95.9399C395.299 96.3273 395.222 96.7148 395.067 97.1022C394.912 97.4896 394.524 98.1095 393.904 98.9619C393.362 99.8142 392.665 100.86 391.812 102.1C391.037 103.34 390.224 104.696 389.371 106.168C388.519 107.563 387.783 108.958 387.163 110.352C387.163 110.352 387.008 110.624 386.698 111.166C386.466 111.708 386.156 112.406 385.768 113.258C385.381 114.033 384.993 114.924 384.606 115.931C384.218 116.939 383.87 117.946 383.56 118.953L385.652 117.675C387.667 116.435 389.488 115.157 391.115 113.839L395.996 109.655C396.616 109.113 397.198 108.57 397.74 108.028C398.36 107.408 398.98 106.904 399.6 106.517C399.832 106.362 400.026 106.401 400.181 106.633C400.336 106.788 400.336 106.982 400.181 107.214C399.793 107.912 399.29 108.57 398.67 109.19C398.127 109.733 397.585 110.314 397.043 110.934C396.268 111.786 395.493 112.6 394.718 113.374C393.943 114.072 393.129 114.808 392.277 115.583C391.425 116.358 390.534 117.133 389.604 117.907C388.751 118.682 387.822 119.38 386.814 120Z" fill="url(#paint3_linear_405_28)"/>
<path d="M433.018 92.3368C433.173 92.4143 433.405 92.608 433.715 92.9179C434.102 93.2279 434.49 93.5766 434.877 93.964C435.265 94.3514 435.575 94.7776 435.807 95.2425C436.117 95.7075 436.272 96.1336 436.272 96.5211C435.885 100.085 434.722 103.417 432.785 106.517C430.848 109.616 428.717 112.677 426.392 115.699C427.632 115.157 429.143 114.266 430.925 113.026C432.785 111.786 434.567 110.507 436.272 109.19C437.977 107.873 439.41 106.711 440.573 105.703C441.812 104.696 442.471 104.192 442.548 104.192C442.238 104.502 441.347 105.393 439.875 106.866C438.403 108.338 436.621 110.004 434.529 111.863C432.436 113.646 430.151 115.428 427.671 117.21C425.269 118.992 422.983 120.387 420.813 121.394C418.644 122.479 416.784 122.944 415.234 122.789C413.685 122.712 412.716 121.665 412.329 119.651C412.174 119.108 412.251 118.605 412.561 118.14C413.646 116.59 414.731 115.002 415.816 113.374C416.978 111.747 418.101 110.159 419.186 108.609C419.496 108.144 419.922 107.524 420.465 106.749C421.085 105.897 421.666 105.083 422.208 104.308C422.751 103.534 423.216 102.836 423.603 102.216C424.068 101.519 424.339 101.093 424.417 100.938C422.867 101.015 421.201 101.286 419.419 101.751C417.636 102.139 415.661 103.069 413.491 104.541C412.871 105.006 412.096 105.936 411.166 107.33C410.236 108.648 409.268 110.12 408.261 111.747C407.253 113.297 406.285 114.769 405.355 116.164C404.425 117.559 403.689 118.489 403.146 118.953C402.062 119.806 401.016 120.309 400.008 120.464C399.078 120.619 398.071 120.271 396.986 119.418C396.831 119.263 396.831 119.225 396.986 119.302C397.141 119.302 397.141 119.302 396.986 119.302C396.289 118.837 395.669 118.334 395.127 117.791C394.662 117.326 394.235 116.784 393.848 116.164C393.461 115.544 393.306 114.847 393.383 114.072C394.545 112.677 395.979 110.662 397.684 108.028C399.388 105.316 401.093 102.565 402.798 99.7755C404.58 96.986 406.207 94.3902 407.679 91.9881C409.152 89.5085 410.198 87.8038 410.818 86.874C411.592 85.6342 412.6 85.1693 413.84 85.4792C414.769 85.8666 415.699 86.2153 416.629 86.5253C417.636 86.8352 418.566 87.1839 419.419 87.5714C420.039 87.8038 420.387 88.3075 420.465 89.0823C420.62 89.8572 420.465 90.5546 420 91.1745C419.147 92.4143 418.334 93.6928 417.559 95.0101C416.784 96.2499 416.048 97.5671 415.351 98.9619C416.203 98.342 417.055 97.6834 417.908 96.986C418.837 96.2886 419.806 95.63 420.813 95.0101C421.821 94.3902 422.828 93.7703 423.835 93.1504C424.92 92.5305 426.005 91.9493 427.09 91.4069C428.175 90.942 429.182 90.9033 430.112 91.2907C431.042 91.6781 432.01 92.0268 433.018 92.3368Z" fill="url(#paint4_linear_405_28)"/>
<path d="M469.779 123.254V123.486V123.254ZM488.027 108.609C484.85 111.166 481.983 113.452 479.426 115.467C478.341 116.319 477.256 117.21 476.172 118.14C475.087 118.992 474.079 119.767 473.15 120.464C472.22 121.162 471.445 121.743 470.825 122.208C470.205 122.673 469.818 122.944 469.663 123.022C469.663 123.099 469.391 123.176 468.849 123.254C468.384 123.409 467.958 123.525 467.571 123.603C467.338 123.68 466.951 123.719 466.408 123.719H465.827H465.478C464.859 123.564 464.122 123.215 463.27 122.673C462.495 122.208 461.72 121.627 460.945 120.929C460.248 120.232 459.551 119.535 458.853 118.837C458.156 118.14 457.614 117.52 457.226 116.978C456.374 116.048 455.56 115.118 454.785 114.188C454.088 113.181 453.352 112.173 452.577 111.166C452.189 110.701 451.802 110.469 451.415 110.469C451.027 110.391 450.64 110.43 450.252 110.585C448.703 112.445 447.424 114.188 446.417 115.815C445.487 117.442 444.712 118.644 444.092 119.418C444.015 119.573 443.821 119.806 443.511 120.116C443.278 120.426 442.814 120.736 442.116 121.046C441.496 121.356 440.605 121.549 439.443 121.627C438.281 121.704 436.808 121.549 435.026 121.162C434.871 121.162 434.484 120.891 433.864 120.348C433.244 119.806 432.895 119.457 432.818 119.302C432.895 118.992 433.012 118.605 433.166 118.14C433.244 117.985 433.283 117.83 433.283 117.675C440.876 105.974 447.773 95.4362 453.972 86.0604C456.606 82.0311 459.202 78.0792 461.759 74.2049C464.316 70.2531 466.641 66.6887 468.733 63.5117C470.825 60.3348 472.568 57.7002 473.963 55.6081C475.435 53.4385 476.365 52.1212 476.753 51.6563C478.457 49.4092 480.24 49.7191 482.099 52.5861C482.332 52.9736 482.564 53.3997 482.797 53.8646C483.029 54.2521 483.223 54.6783 483.378 55.1432C483.998 56.4604 483.998 57.6615 483.378 58.7463C482.913 59.5987 482.099 60.9159 480.937 62.6981C479.852 64.4028 478.574 66.3787 477.101 68.6259C475.707 70.7955 474.196 73.1201 472.568 75.5997C470.941 78.0792 469.353 80.4426 467.803 82.6897C466.331 84.9368 464.975 87.0289 463.735 88.9661C462.495 90.8258 461.527 92.2593 460.829 93.2666C461.449 93.1116 462.069 93.0342 462.689 93.0342C463.309 92.9567 463.812 92.8404 464.2 92.6855H465.943C466.408 92.6855 466.873 92.6855 467.338 92.6855C467.881 92.608 468.345 92.5692 468.733 92.5692C470.128 92.5692 471.251 92.9567 472.104 93.7315C473.033 94.4289 473.769 95.3975 474.312 96.6373C474.777 97.7221 475.048 98.8069 475.126 99.8917C475.203 100.977 474.816 101.945 473.963 102.797C472.646 103.96 471.251 105.083 469.779 106.168C468.307 107.253 466.834 108.338 465.362 109.423C464.82 109.81 464.239 110.159 463.619 110.469C463.076 110.779 462.456 111.127 461.759 111.515C462.766 112.755 463.657 114.111 464.432 115.583C465.285 117.055 466.37 118.256 467.687 119.186C467.919 119.341 468.152 119.341 468.384 119.186C468.617 118.953 468.81 118.798 468.965 118.721C469.818 118.334 471.29 117.597 473.382 116.513C475.474 115.35 477.605 114.188 479.775 113.026C482.332 111.631 485.083 110.159 488.027 108.609ZM456.761 105.238C458.156 104.541 459.551 103.844 460.945 103.146C462.34 102.449 463.735 101.713 465.13 100.938C465.362 100.783 465.517 100.55 465.595 100.24C465.75 99.853 465.905 99.5043 466.06 99.1944C465.672 99.1169 465.014 98.9619 464.084 98.7294C463.154 98.4195 462.495 98.2258 462.108 98.1483C461.953 98.1483 461.798 98.187 461.643 98.2645C461.565 98.342 461.449 98.4195 461.294 98.497C460.209 99.1944 459.357 99.9305 458.737 100.705C458.195 101.48 457.497 102.41 456.645 103.495C456.49 103.727 456.335 103.999 456.18 104.308C456.025 104.541 455.793 104.89 455.483 105.355C455.87 105.277 456.141 105.277 456.296 105.355C456.451 105.355 456.606 105.316 456.761 105.238Z" fill="url(#paint5_linear_405_28)"/>
<path d="M514.288 92.3368C514.443 92.4143 514.675 92.608 514.985 92.9179C515.373 93.2279 515.76 93.5766 516.147 93.964C516.535 94.3514 516.845 94.7776 517.077 95.2425C517.387 95.7075 517.542 96.1336 517.542 96.5211C517.155 100.085 515.992 103.417 514.055 106.517C512.118 109.616 509.987 112.677 507.663 115.699C508.902 115.157 510.413 114.266 512.196 113.026C514.055 111.786 515.837 110.507 517.542 109.19C519.247 107.873 520.68 106.711 521.843 105.703C523.082 104.696 523.741 104.192 523.819 104.192C523.509 104.502 522.618 105.393 521.145 106.866C519.673 108.338 517.891 110.004 515.799 111.863C513.707 113.646 511.421 115.428 508.941 117.21C506.539 118.992 504.253 120.387 502.084 121.394C499.914 122.479 498.054 122.944 496.505 122.789C494.955 122.712 493.986 121.665 493.599 119.651C493.444 119.108 493.521 118.605 493.831 118.14C494.916 116.59 496.001 115.002 497.086 113.374C498.248 111.747 499.372 110.159 500.456 108.609C500.766 108.144 501.193 107.524 501.735 106.749C502.355 105.897 502.936 105.083 503.478 104.308C504.021 103.534 504.486 102.836 504.873 102.216C505.338 101.519 505.609 101.093 505.687 100.938C504.137 101.015 502.471 101.286 500.689 101.751C498.907 102.139 496.931 103.069 494.761 104.541C494.141 105.006 493.366 105.936 492.437 107.33C491.507 108.648 490.538 110.12 489.531 111.747C488.523 113.297 487.555 114.769 486.625 116.164C485.695 117.559 484.959 118.489 484.417 118.953C483.332 119.806 482.286 120.309 481.278 120.464C480.349 120.619 479.341 120.271 478.256 119.418C478.101 119.263 478.101 119.225 478.256 119.302C478.411 119.302 478.411 119.302 478.256 119.302C477.559 118.837 476.939 118.334 476.397 117.791C475.932 117.326 475.506 116.784 475.118 116.164C474.731 115.544 474.576 114.847 474.653 114.072C475.816 112.677 477.249 110.662 478.954 108.028C480.659 105.316 482.363 102.565 484.068 99.7755C485.85 96.986 487.477 94.3902 488.95 91.9881C490.422 89.5085 491.468 87.8038 492.088 86.874C492.863 85.6342 493.87 85.1693 495.11 85.4792C496.04 85.8666 496.969 86.2153 497.899 86.5253C498.907 86.8352 499.836 87.1839 500.689 87.5714C501.309 87.8038 501.657 88.3075 501.735 89.0823C501.89 89.8572 501.735 90.5546 501.27 91.1745C500.418 92.4143 499.604 93.6928 498.829 95.0101C498.054 96.2499 497.318 97.5671 496.621 98.9619C497.473 98.342 498.326 97.6834 499.178 96.986C500.108 96.2886 501.076 95.63 502.084 95.0101C503.091 94.3902 504.098 93.7703 505.106 93.1504C506.19 92.5305 507.275 91.9493 508.36 91.4069C509.445 90.942 510.452 90.9033 511.382 91.2907C512.312 91.6781 513.28 92.0268 514.288 92.3368Z" fill="url(#paint6_linear_405_28)"/>
<path d="M525.13 119.767C522.03 119.147 519.628 117.597 517.924 115.118C517.769 114.808 517.614 114.459 517.459 114.072C517.304 113.684 517.149 113.297 516.994 112.909C516.839 111.127 517.497 109.19 518.97 107.098C520.442 104.928 522.185 102.836 524.2 100.822C526.215 98.8069 528.229 96.986 530.244 95.3588C532.336 93.7315 533.847 92.5692 534.777 91.8719C535.319 91.4069 536.172 90.9033 537.334 90.3609C538.496 89.741 539.775 89.1986 541.17 88.7337C542.642 88.2687 544.192 87.8813 545.819 87.5714C547.523 87.2614 549.151 87.1839 550.7 87.3389C551.863 87.5713 552.56 88.1525 552.793 89.0823C553.103 89.9347 553.49 90.787 553.955 91.6394C554.42 92.4143 555.543 92.9179 557.326 93.1504C559.108 93.3054 561.006 93.3829 563.021 93.3829C565.035 93.3054 566.856 93.1891 568.484 93.0342C570.188 92.8017 571.157 92.6855 571.389 92.6855C569.452 93.2279 567.631 93.7315 565.927 94.1965C564.454 94.5839 563.021 94.9713 561.626 95.3588C560.231 95.7462 559.224 96.0174 558.604 96.1724C558.449 96.1724 558.294 96.2886 558.139 96.5211C558.062 96.7535 557.984 96.9472 557.907 97.1022C556.434 99.3493 554.768 101.519 552.909 103.611C551.049 105.703 549.189 107.602 547.33 109.306C545.47 110.934 543.688 112.367 541.983 113.607C540.356 114.847 539.039 115.738 538.031 116.28C537.102 116.823 536.21 117.404 535.358 118.024C534.506 118.566 533.576 119.031 532.569 119.418C531.406 119.883 530.205 120.155 528.965 120.232C527.726 120.232 526.447 120.077 525.13 119.767ZM547.678 94.6614C546.904 93.964 545.741 93.8478 544.192 94.3127C542.719 94.7001 541.092 95.4362 539.31 96.5211C537.528 97.6059 535.746 98.9232 533.963 100.473C532.181 102.023 530.631 103.572 529.314 105.122C528.074 106.672 527.183 108.105 526.641 109.423C526.098 110.662 526.215 111.592 526.99 112.212C527.377 112.522 528.268 112.445 529.663 111.98C531.135 111.437 532.762 110.662 534.544 109.655C536.404 108.57 538.264 107.33 540.124 105.936C542.061 104.541 543.727 103.146 545.121 101.751C546.516 100.357 547.485 99.0394 548.027 97.7996C548.647 96.4823 548.531 95.4362 547.678 94.6614Z" fill="url(#paint7_linear_405_28)"/>
<path d="M623.8 87.8038C624.187 88.0363 624.265 88.3462 624.033 88.7337C623.878 89.0436 623.606 89.1598 623.219 89.0823C622.366 88.9274 621.553 88.7724 620.778 88.6174C620.003 88.385 619.19 88.1912 618.337 88.0363C616.4 87.6488 614.695 87.4551 613.223 87.4551C612.526 88.5399 611.363 90.2059 609.736 92.453C608.186 94.6226 606.598 96.8698 604.971 99.1944C603.344 101.441 601.871 103.456 600.554 105.238C599.314 106.943 598.617 107.912 598.462 108.144C597.997 108.764 597.261 109.655 596.254 110.817C595.324 111.98 594.316 113.219 593.232 114.537C592.224 115.776 591.256 116.978 590.326 118.14C589.473 119.225 588.854 119.961 588.466 120.348C588.079 120.736 587.691 120.968 587.304 121.046C586.064 121.356 584.863 121.511 583.701 121.511C582.616 121.588 581.531 121.123 580.446 120.116C580.214 119.883 579.904 119.612 579.516 119.302C579.206 118.992 578.858 118.527 578.47 117.907C578.16 117.287 577.812 116.474 577.424 115.467C577.037 114.459 576.688 113.103 576.378 111.398C576.378 111.244 576.378 111.127 576.378 111.05C576.378 110.895 576.301 110.662 576.146 110.352C575.681 110.817 574.79 111.592 573.472 112.677C572.233 113.684 570.877 114.769 569.404 115.931C567.932 117.094 566.499 118.14 565.104 119.07C563.787 120 562.857 120.542 562.314 120.697C561.617 120.929 560.571 121.007 559.176 120.929C557.781 120.929 556.425 120.697 555.108 120.232C553.868 119.767 552.822 119.031 551.97 118.024C551.195 116.939 551.04 115.467 551.505 113.607C551.66 112.755 552.28 111.399 553.365 109.539C554.449 107.679 555.612 105.742 556.852 103.727C558.169 101.713 559.409 99.853 560.571 98.1483C561.733 96.4436 562.547 95.3588 563.012 94.8938C563.399 94.5064 563.709 94.0802 563.942 93.6153C564.252 93.1504 564.561 92.7242 564.871 92.3368C565.336 91.7169 565.801 91.1357 566.266 90.5933C566.654 90.1284 567.041 89.7022 567.428 89.3148C567.893 88.9274 568.32 88.6562 568.707 88.5012C569.017 88.3462 569.443 88.2687 569.986 88.2687C570.528 88.2687 571.07 88.3075 571.613 88.385C572.155 88.4624 572.62 88.5787 573.008 88.7337C573.395 88.8111 573.627 88.8499 573.705 88.8499C573.937 88.9274 574.17 89.1598 574.402 89.5473C574.635 89.8572 574.828 90.2446 574.983 90.7096C575.138 91.1745 575.255 91.6394 575.332 92.1043C575.41 92.5692 575.41 92.9567 575.332 93.2666C575.177 93.7315 575.022 94.0415 574.867 94.1965C574.247 94.8938 573.356 95.9787 572.194 97.4509C571.109 98.8457 569.986 100.318 568.823 101.868C567.738 103.417 566.731 104.851 565.801 106.168C564.949 107.485 564.484 108.415 564.406 108.958L568.01 106.749L579.749 95.2425C579.904 95.0876 580.02 94.9326 580.098 94.7776C580.175 94.6226 580.291 94.4677 580.446 94.3127C581.221 93.0729 581.918 92.3368 582.538 92.1043C583.236 91.8719 584.243 92.0656 585.56 92.6855C586.18 92.9954 586.723 93.3054 587.188 93.6153C587.652 93.8478 588.156 94.1577 588.699 94.5452C590.326 95.7075 590.791 97.141 590.093 98.8457C589.938 99.3106 589.628 100.085 589.163 101.17C588.776 102.255 588.35 103.379 587.885 104.541C587.42 105.703 586.994 106.749 586.606 107.679C586.296 108.609 586.141 109.074 586.141 109.074C586.606 108.454 587.188 107.718 587.885 106.866C588.66 105.936 589.396 105.006 590.093 104.076C590.868 103.069 591.604 102.139 592.302 101.286C593.077 100.357 593.735 99.5818 594.278 98.9619C594.82 98.187 595.479 97.2959 596.254 96.2886C597.028 95.2038 597.726 94.1577 598.346 93.1504C599.043 92.1431 599.624 91.252 600.089 90.4771C600.631 89.6248 600.98 89.0823 601.135 88.8499C601.29 88.5399 601.445 88.3075 601.6 88.1525C601.6 87.9975 601.716 87.8426 601.949 87.6876C603.653 86.6028 605.474 85.8666 607.412 85.4792C609.349 85.0918 611.286 84.9756 613.223 85.1305C615.315 85.2855 617.214 85.5567 618.918 85.9441C619.771 86.0991 620.584 86.3316 621.359 86.6415C622.212 86.9515 623.025 87.3389 623.8 87.8038Z" fill="url(#paint8_linear_405_28)"/>
<path d="M641.982 92.3368C642.137 92.4143 642.369 92.608 642.679 92.9179C643.067 93.2279 643.454 93.5766 643.842 93.964C644.229 94.3514 644.539 94.7776 644.771 95.2425C645.081 95.7075 645.236 96.1336 645.236 96.5211C644.849 100.085 643.687 103.417 641.749 106.517C639.812 109.616 637.681 112.677 635.357 115.699C636.597 115.157 638.108 114.266 639.89 113.026C641.749 111.786 643.532 110.507 645.236 109.19C646.941 107.873 648.375 106.711 649.537 105.703C650.777 104.696 651.435 104.192 651.513 104.192C651.203 104.502 650.312 105.393 648.839 106.866C647.367 108.338 645.585 110.004 643.493 111.863C641.401 113.646 639.115 115.428 636.635 117.21C634.233 118.992 631.947 120.387 629.778 121.394C627.608 122.479 625.748 122.944 624.199 122.789C622.649 122.712 621.68 121.665 621.293 119.651C621.138 119.108 621.215 118.605 621.525 118.14C622.61 116.59 623.695 115.002 624.78 113.374C625.942 111.747 627.066 110.159 628.15 108.609C628.46 108.144 628.887 107.524 629.429 106.749C630.049 105.897 630.63 105.083 631.172 104.308C631.715 103.534 632.18 102.836 632.567 102.216C633.032 101.519 633.303 101.093 633.381 100.938C631.831 101.015 630.165 101.286 628.383 101.751C626.601 102.139 624.625 103.069 622.455 104.541C621.835 105.006 621.06 105.936 620.131 107.33C619.201 108.648 618.232 110.12 617.225 111.747C616.218 113.297 615.249 114.769 614.319 116.164C613.389 117.559 612.653 118.489 612.111 118.953C611.026 119.806 609.98 120.309 608.973 120.464C608.043 120.619 607.035 120.271 605.951 119.418C605.796 119.263 605.796 119.225 605.951 119.302C606.106 119.302 606.106 119.302 605.951 119.302C605.253 118.837 604.633 118.334 604.091 117.791C603.626 117.326 603.2 116.784 602.812 116.164C602.425 115.544 602.27 114.847 602.347 114.072C603.51 112.677 604.943 110.662 606.648 108.028C608.353 105.316 610.057 102.565 611.762 99.7755C613.544 96.986 615.171 94.3902 616.644 91.9881C618.116 89.5085 619.162 87.8038 619.782 86.874C620.557 85.6342 621.564 85.1693 622.804 85.4792C623.734 85.8666 624.664 86.2153 625.593 86.5253C626.601 86.8352 627.531 87.1839 628.383 87.5714C629.003 87.8038 629.351 88.3075 629.429 89.0823C629.584 89.8572 629.429 90.5546 628.964 91.1745C628.112 92.4143 627.298 93.6928 626.523 95.0101C625.748 96.2499 625.012 97.5671 624.315 98.9619C625.167 98.342 626.02 97.6834 626.872 96.986C627.802 96.2886 628.77 95.63 629.778 95.0101C630.785 94.3902 631.792 93.7703 632.8 93.1504C633.885 92.5305 634.969 91.9493 636.054 91.4069C637.139 90.942 638.146 90.9033 639.076 91.2907C640.006 91.6781 640.975 92.0268 641.982 92.3368Z" fill="url(#paint9_linear_405_28)"/>
<defs>
<linearGradient id="paint0_linear_405_28" x1="433.256" y1="50" x2="433.256" y2="124.148" gradientUnits="userSpaceOnUse">
<stop stop-color="#FFE175"/>
<stop offset="0.546875" stop-color="#F37F6B"/>
<stop offset="1" stop-color="#C600B2"/>
</linearGradient>
<linearGradient id="paint1_linear_405_28" x1="433.256" y1="50" x2="433.256" y2="124.148" gradientUnits="userSpaceOnUse">
<stop stop-color="#FFE175"/>
<stop offset="0.546875" stop-color="#F37F6B"/>
<stop offset="1" stop-color="#C600B2"/>
</linearGradient>
<linearGradient id="paint2_linear_405_28" x1="433.256" y1="50" x2="433.256" y2="124.148" gradientUnits="userSpaceOnUse">
<stop stop-color="#FFE175"/>
<stop offset="0.546875" stop-color="#F37F6B"/>
<stop offset="1" stop-color="#C600B2"/>
</linearGradient>
<linearGradient id="paint3_linear_405_28" x1="433.256" y1="50" x2="433.256" y2="124.148" gradientUnits="userSpaceOnUse">
<stop stop-color="#FFE175"/>
<stop offset="0.546875" stop-color="#F37F6B"/>
<stop offset="1" stop-color="#C600B2"/>
</linearGradient>
<linearGradient id="paint4_linear_405_28" x1="433.256" y1="50" x2="433.256" y2="124.148" gradientUnits="userSpaceOnUse">
<stop stop-color="#FFE175"/>
<stop offset="0.546875" stop-color="#F37F6B"/>
<stop offset="1" stop-color="#C600B2"/>
</linearGradient>
<linearGradient id="paint5_linear_405_28" x1="433.256" y1="50" x2="433.256" y2="124.148" gradientUnits="userSpaceOnUse">
<stop stop-color="#FFE175"/>
<stop offset="0.546875" stop-color="#F37F6B"/>
<stop offset="1" stop-color="#C600B2"/>
</linearGradient>
<linearGradient id="paint6_linear_405_28" x1="433.256" y1="50" x2="433.256" y2="124.148" gradientUnits="userSpaceOnUse">
<stop stop-color="#FFE175"/>
<stop offset="0.546875" stop-color="#F37F6B"/>
<stop offset="1" stop-color="#C600B2"/>
</linearGradient>
<linearGradient id="paint7_linear_405_28" x1="433.256" y1="50" x2="433.256" y2="124.148" gradientUnits="userSpaceOnUse">
<stop stop-color="#FFE175"/>
<stop offset="0.546875" stop-color="#F37F6B"/>
<stop offset="1" stop-color="#C600B2"/>
</linearGradient>
<linearGradient id="paint8_linear_405_28" x1="433.256" y1="50" x2="433.256" y2="124.148" gradientUnits="userSpaceOnUse">
<stop stop-color="#FFE175"/>
<stop offset="0.546875" stop-color="#F37F6B"/>
<stop offset="1" stop-color="#C600B2"/>
</linearGradient>
<linearGradient id="paint9_linear_405_28" x1="433.256" y1="50" x2="433.256" y2="124.148" gradientUnits="userSpaceOnUse">
<stop stop-color="#FFE175"/>
<stop offset="0.546875" stop-color="#F37F6B"/>
<stop offset="1" stop-color="#C600B2"/>
</linearGradient>
</defs>
</svg>
